# xmcd
#
# Track frame offsets: 
#        150
#        13675
#        26565
#        38570
#        50640
#        61770
#        72260
#        85247
#        108320
#        121477
#        131692
#        143372
#        154647
#        170830
#        183395
#
# Disc length: 2624 seconds
#
# Revision: 1
# Processed by: cddbd v1.5.2PL0 Copyright (c) Steve Scherf et al.
# Submitted via: ExactAudioCopy v0.95b2
#
DISCID=c50a3e0f
DTITLE=Clarence Carter - Testifyin'
DYEAR=1996
DGENRE=Blues - Soul
TTITLE0=Bad News
TTITLE1=Snatching It Back
TTITLE2=Soul Deep
TTITLE3=I Smell A Rat
TTITLE4=Doin' Our Thing
TTITLE5=You Can't Miss What You Can't Measure
TTITLE6=Instatnt Reaction
TTITLE7=Making Love (At The Dark End Of The Street)
TTITLE8=The Feeling Is Right
TTITLE9=Back Door Santa
TTITLE10=I Can't Do Without You
TTITLE11=Devil Woman
TTITLE12=The Court Room
TTITLE13=Slipped, Tripped And Fell In Love
TTITLE14=I Hate To Love And Run
EXTD=
EXTT0=
EXTT1=
EXTT2=
EXTT3=
EXTT4=
EXTT5=
EXTT6=
EXTT7=
EXTT8=
EXTT9=
EXTT10=
EXTT11=
EXTT12=
EXTT13=
EXTT14=
PLAYORDER=
